<svg width="206" height="29" viewBox="0 0 206 29" fill="none" xmlns="http://www.w3.org/2000/svg">
<path d="M15.716 7.672C15.716 8.81067 15.4547 9.856 14.932 10.808C14.4093 11.7413 13.6067 12.4973 12.524 13.076C11.4413 13.6547 10.0973 13.944 8.492 13.944H5.524V21H0.736V1.344H8.492C10.06 1.344 11.3853 1.61467 12.468 2.156C13.5507 2.69733 14.3627 3.444 14.904 4.396C15.4453 5.348 15.716 6.44 15.716 7.672ZM8.128 10.136C9.04267 10.136 9.724 9.92133 10.172 9.492C10.62 9.06267 10.844 8.456 10.844 7.672C10.844 6.888 10.62 6.28133 10.172 5.852C9.724 5.42267 9.04267 5.208 8.128 5.208H5.524V10.136H8.128ZM25.7967 7.98C26.3567 7.12133 27.0567 6.44933 27.8967 5.964C28.7367 5.46 29.67 5.208 30.6967 5.208V10.276H29.3807C28.186 10.276 27.29 10.5373 26.6927 11.06C26.0953 11.564 25.7967 12.46 25.7967 13.748V21H21.0087V5.376H25.7967V7.98ZM42.8972 21.224C41.3666 21.224 39.9852 20.8973 38.7532 20.244C37.5399 19.5907 36.5786 18.6573 35.8692 17.444C35.1786 16.2307 34.8332 14.812 34.8332 13.188C34.8332 11.5827 35.1879 10.1733 35.8972 8.96C36.6066 7.728 37.5772 6.78533 38.8092 6.132C40.0412 5.47867 41.4226 5.152 42.9532 5.152C44.4839 5.152 45.8652 5.47867 47.0972 6.132C48.3292 6.78533 49.2999 7.728 50.0092 8.96C50.7186 10.1733 51.0732 11.5827 51.0732 13.188C51.0732 14.7933 50.7092 16.212 49.9812 17.444C49.2719 18.6573 48.2919 19.5907 47.0412 20.244C45.8092 20.8973 44.4279 21.224 42.8972 21.224ZM42.8972 17.08C43.8119 17.08 44.5866 16.744 45.2212 16.072C45.8746 15.4 46.2012 14.4387 46.2012 13.188C46.2012 11.9373 45.8839 10.976 45.2492 10.304C44.6332 9.632 43.8679 9.296 42.9532 9.296C42.0199 9.296 41.2452 9.632 40.6292 10.304C40.0132 10.9573 39.7052 11.9187 39.7052 13.188C39.7052 14.4387 40.0039 15.4 40.6012 16.072C41.2172 16.744 41.9826 17.08 42.8972 17.08ZM61.2013 7.588C61.668 6.86 62.312 6.272 63.1333 5.824C63.9547 5.376 64.916 5.152 66.0173 5.152C67.3053 5.152 68.472 5.47867 69.5173 6.132C70.5627 6.78533 71.384 7.71867 71.9813 8.932C72.5973 10.1453 72.9053 11.5547 72.9053 13.16C72.9053 14.7653 72.5973 16.184 71.9813 17.416C71.384 18.6293 70.5627 19.572 69.5173 20.244C68.472 20.8973 67.3053 21.224 66.0173 21.224C64.9347 21.224 63.9733 21 63.1333 20.552C62.312 20.104 61.668 19.5253 61.2013 18.816V28.448H56.4133V5.376H61.2013V7.588ZM68.0333 13.16C68.0333 11.9653 67.6973 11.032 67.0253 10.36C66.372 9.66933 65.56 9.324 64.5893 9.324C63.6373 9.324 62.8253 9.66933 62.1533 10.36C61.5 11.0507 61.1733 11.9933 61.1733 13.188C61.1733 14.3827 61.5 15.3253 62.1533 16.016C62.8253 16.7067 63.6373 17.052 64.5893 17.052C65.5413 17.052 66.3533 16.7067 67.0253 16.016C67.6973 15.3067 68.0333 14.3547 68.0333 13.16Z" fill="#296DB3"/>
<path d="M77.8252 11.2C77.8252 9.27733 78.2452 7.56 79.0852 6.048C79.9252 4.51733 81.0732 3.332 82.5292 2.492C83.9852 1.63333 85.6092 1.204 87.4012 1.204C89.5852 1.204 91.4519 1.72667 93.0012 2.772C94.5692 3.79867 95.7079 5.25467 96.4172 7.14H94.1212C93.5612 5.81467 92.7026 4.77867 91.5452 4.032C90.4066 3.28533 89.0252 2.912 87.4012 2.912C85.9639 2.912 84.6666 3.248 83.5092 3.92C82.3706 4.592 81.4746 5.56267 80.8212 6.832C80.1679 8.08267 79.8412 9.53867 79.8412 11.2C79.8412 12.8613 80.1679 14.3173 80.8212 15.568C81.4746 16.8187 82.3706 17.78 83.5092 18.452C84.6666 19.124 85.9639 19.46 87.4012 19.46C89.0252 19.46 90.4066 19.096 91.5452 18.368C92.7026 17.6213 93.5612 16.5947 94.1212 15.288H96.4172C95.7079 17.1547 94.5692 18.6013 93.0012 19.628C91.4332 20.6547 89.5666 21.168 87.4012 21.168C85.6092 21.168 83.9852 20.748 82.5292 19.908C81.0732 19.0493 79.9252 17.864 79.0852 16.352C78.2452 14.84 77.8252 13.1227 77.8252 11.2ZM109.815 21.224C108.377 21.224 107.08 20.9067 105.923 20.272C104.784 19.6187 103.879 18.704 103.207 17.528C102.553 16.3333 102.227 14.9427 102.227 13.356C102.227 11.7693 102.563 10.388 103.235 9.212C103.907 8.01733 104.821 7.10267 105.979 6.468C107.136 5.81467 108.433 5.488 109.871 5.488C111.308 5.488 112.605 5.81467 113.763 6.468C114.939 7.10267 115.853 8.01733 116.507 9.212C117.179 10.388 117.515 11.7693 117.515 13.356C117.515 14.924 117.179 16.3053 116.507 17.5C115.835 18.6947 114.911 19.6187 113.735 20.272C112.559 20.9067 111.252 21.224 109.815 21.224ZM109.815 19.516C110.823 19.516 111.756 19.292 112.615 18.844C113.473 18.3773 114.164 17.6867 114.687 16.772C115.228 15.8387 115.499 14.7 115.499 13.356C115.499 12.012 115.237 10.8827 114.715 9.968C114.192 9.03467 113.501 8.344 112.643 7.896C111.784 7.42933 110.851 7.196 109.843 7.196C108.835 7.196 107.901 7.42933 107.043 7.896C106.184 8.344 105.493 9.03467 104.971 9.968C104.467 10.8827 104.215 12.012 104.215 13.356C104.215 14.7 104.467 15.8387 104.971 16.772C105.493 17.6867 106.175 18.3773 107.015 18.844C107.873 19.292 108.807 19.516 109.815 19.516ZM131.056 5.432C132.885 5.432 134.378 6.00133 135.536 7.14C136.693 8.26 137.272 9.89333 137.272 12.04V21H135.34V12.264C135.34 10.6027 134.92 9.33333 134.08 8.456C133.258 7.57867 132.129 7.14 130.692 7.14C129.217 7.14 128.041 7.60667 127.164 8.54C126.286 9.47333 125.848 10.8453 125.848 12.656V21H123.888V5.712H125.848V8.316C126.333 7.38267 127.033 6.67333 127.948 6.188C128.862 5.684 129.898 5.432 131.056 5.432ZM149.67 21.224C147.916 21.224 146.478 20.8227 145.358 20.02C144.257 19.1987 143.641 18.088 143.51 16.688H145.526C145.62 17.5467 146.021 18.2467 146.73 18.788C147.458 19.3107 148.429 19.572 149.642 19.572C150.706 19.572 151.537 19.32 152.134 18.816C152.75 18.312 153.058 17.6867 153.058 16.94C153.058 16.4173 152.89 15.988 152.554 15.652C152.218 15.316 151.789 15.0547 151.266 14.868C150.762 14.6627 150.072 14.448 149.194 14.224C148.056 13.9253 147.132 13.6267 146.422 13.328C145.713 13.0293 145.106 12.5907 144.602 12.012C144.117 11.4147 143.874 10.6213 143.874 9.632C143.874 8.88533 144.098 8.19467 144.546 7.56C144.994 6.92533 145.629 6.42133 146.45 6.048C147.272 5.67467 148.205 5.488 149.25 5.488C150.893 5.488 152.218 5.908 153.226 6.748C154.234 7.56933 154.776 8.708 154.85 10.164H152.89C152.834 9.268 152.48 8.54933 151.826 8.008C151.192 7.448 150.314 7.168 149.194 7.168C148.205 7.168 147.402 7.40133 146.786 7.868C146.17 8.33467 145.862 8.91333 145.862 9.604C145.862 10.2013 146.04 10.696 146.394 11.088C146.768 11.4613 147.225 11.76 147.766 11.984C148.308 12.1893 149.036 12.4227 149.95 12.684C151.052 12.9827 151.929 13.272 152.582 13.552C153.236 13.832 153.796 14.2427 154.262 14.784C154.729 15.3253 154.972 16.044 154.99 16.94C154.99 17.7613 154.766 18.4987 154.318 19.152C153.87 19.7867 153.245 20.2907 152.442 20.664C151.64 21.0373 150.716 21.224 149.67 21.224ZM168.172 21.224C166.735 21.224 165.437 20.9067 164.28 20.272C163.141 19.6187 162.236 18.704 161.564 17.528C160.911 16.3333 160.584 14.9427 160.584 13.356C160.584 11.7693 160.92 10.388 161.592 9.212C162.264 8.01733 163.179 7.10267 164.336 6.468C165.493 5.81467 166.791 5.488 168.228 5.488C169.665 5.488 170.963 5.81467 172.12 6.468C173.296 7.10267 174.211 8.01733 174.864 9.212C175.536 10.388 175.872 11.7693 175.872 13.356C175.872 14.924 175.536 16.3053 174.864 17.5C174.192 18.6947 173.268 19.6187 172.092 20.272C170.916 20.9067 169.609 21.224 168.172 21.224ZM168.172 19.516C169.18 19.516 170.113 19.292 170.972 18.844C171.831 18.3773 172.521 17.6867 173.044 16.772C173.585 15.8387 173.856 14.7 173.856 13.356C173.856 12.012 173.595 10.8827 173.072 9.968C172.549 9.03467 171.859 8.344 171 7.896C170.141 7.42933 169.208 7.196 168.2 7.196C167.192 7.196 166.259 7.42933 165.4 7.896C164.541 8.344 163.851 9.03467 163.328 9.968C162.824 10.8827 162.572 12.012 162.572 13.356C162.572 14.7 162.824 15.8387 163.328 16.772C163.851 17.6867 164.532 18.3773 165.372 18.844C166.231 19.292 167.164 19.516 168.172 19.516ZM184.205 0.28V21H182.245V0.28H184.205ZM205.275 12.572C205.275 13.244 205.256 13.7573 205.219 14.112H192.535C192.591 15.2693 192.871 16.2587 193.375 17.08C193.879 17.9013 194.542 18.5267 195.363 18.956C196.184 19.3667 197.08 19.572 198.051 19.572C199.32 19.572 200.384 19.264 201.243 18.648C202.12 18.032 202.699 17.2013 202.979 16.156H205.051C204.678 17.6493 203.875 18.872 202.643 19.824C201.43 20.7573 199.899 21.224 198.051 21.224C196.614 21.224 195.326 20.9067 194.187 20.272C193.048 19.6187 192.152 18.704 191.499 17.528C190.864 16.3333 190.547 14.9427 190.547 13.356C190.547 11.7693 190.864 10.3787 191.499 9.184C192.134 7.98933 193.02 7.07467 194.159 6.44C195.298 5.80533 196.595 5.488 198.051 5.488C199.507 5.488 200.776 5.80533 201.859 6.44C202.96 7.07467 203.8 7.93333 204.379 9.016C204.976 10.08 205.275 11.2653 205.275 12.572ZM203.287 12.516C203.306 11.3773 203.072 10.4067 202.587 9.604C202.12 8.80133 201.476 8.19467 200.655 7.784C199.834 7.37333 198.938 7.168 197.967 7.168C196.511 7.168 195.27 7.63467 194.243 8.568C193.216 9.50133 192.647 10.8173 192.535 12.516H203.287Z" fill="#84BC33"/>
</svg>
