<svg width="70" height="70" viewBox="0 0 70 70" fill="none" xmlns="http://www.w3.org/2000/svg">
<g clip-path="url(#clip0)">
<path d="M68.9734 28.6012V61.7652C68.9734 63.8925 67.2495 65.6165 65.1222 65.6165H4.87796C2.75069 65.6165 1.02673 63.8925 1.02673 61.7652V28.6012C1.02673 27.5226 1.46969 26.5478 2.1847 25.8492C2.8792 25.1683 3.82936 24.75 4.87796 24.75H65.1222C66.1708 24.75 67.121 25.1683 67.8155 25.8492C68.5305 26.5478 68.9734 27.5226 68.9734 28.6012Z" fill="#0593FC"/>
<path d="M67.8156 25.8492C67.1211 25.1683 66.1709 24.75 65.1223 24.75H62.0336C63.0822 24.75 64.0323 25.1683 64.7268 25.8492C65.4418 26.5478 65.8848 27.5226 65.8848 28.6012V61.7652C65.8848 63.8925 64.1608 65.6165 62.0336 65.6165H65.1223C67.2496 65.6165 68.9736 63.8925 68.9736 61.7652V28.6012C68.9736 27.5226 68.5306 26.5478 67.8156 25.8492Z" fill="#157FCC"/>
<path d="M67.8155 25.8492L40.228 52.0627C37.2982 54.8461 32.7019 54.8461 29.7721 52.0627L2.18469 25.8492C2.8792 25.1683 3.82936 24.75 4.87795 24.75H65.1222C66.1708 24.75 67.1209 25.1682 67.8155 25.8492Z" fill="#EAF6FF"/>
<path d="M48.2255 24.75C46.5604 32.2269 39.8887 37.8157 31.9115 37.8157C23.9329 37.8157 17.2612 32.2269 15.5961 24.75H48.2255Z" fill="#C8EFFE"/>
<path d="M65.1216 24.75H62.0329C63.0815 24.75 64.0316 25.1683 64.7261 25.8492L37.1387 52.0627C36.077 53.0713 34.796 53.7125 33.4552 53.9902C35.8143 54.4787 38.3595 53.8373 40.2276 52.0627L67.815 25.8492C67.1204 25.1682 66.1702 24.75 65.1216 24.75Z" fill="#C8EFFE"/>
<path d="M36.199 59.745H33.802C32.4589 59.745 31.3702 58.6562 31.3702 57.3132V49.4708C31.3702 48.1277 32.459 47.0391 33.802 47.0391H36.199C37.542 47.0391 38.6307 48.1279 38.6307 49.4708V57.3132C38.6307 58.6562 37.5419 59.745 36.199 59.745Z" fill="#99E6FC"/>
<path d="M38.6298 49.4722V57.3141C38.6298 58.6566 37.5416 59.7462 36.199 59.7462H34.4559C35.1094 59.3128 35.5414 58.5691 35.5414 57.7242V49.1987C35.5414 48.2568 35.0069 47.442 34.2235 47.04H36.199C37.5416 47.04 38.6298 48.1283 38.6298 49.4722Z" fill="#62DBFB"/>
<path d="M35.0003 37.8152C44.2321 37.8152 51.716 30.3313 51.716 21.0995C51.716 11.8677 44.2321 4.38379 35.0003 4.38379C25.7684 4.38379 18.2845 11.8677 18.2845 21.0995C18.2845 30.3313 25.7684 37.8152 35.0003 37.8152Z" fill="#4FC123"/>
<path d="M35.0003 4.38379C34.4794 4.38379 33.9645 4.40881 33.4558 4.45543C41.9635 5.23497 48.6271 12.3885 48.6271 21.0995C48.6271 29.8105 41.9634 36.964 33.4558 37.7436C33.9645 37.7902 34.4794 37.8152 35.0003 37.8152C44.2321 37.8152 51.716 30.3314 51.716 21.0995C51.716 11.8676 44.2321 4.38379 35.0003 4.38379Z" fill="#47A920"/>
<path d="M33.3682 21.4806L30.1937 18.3062C29.5838 17.6963 28.5948 17.6963 27.985 18.3062L25.9122 20.3789C25.3024 20.9887 25.3024 21.9777 25.9122 22.5876L31.2226 27.898C32.3232 28.9985 34.1075 28.9985 35.2081 27.898L45.5922 17.5139C46.2021 16.904 46.2021 15.915 45.5922 15.3052L43.6724 13.3851C43.0626 12.7753 42.0736 12.7753 41.4637 13.3851L33.3682 21.4806Z" fill="#D1F19E"/>
<path d="M45.5919 15.305L43.6722 13.3851C43.0623 12.7753 42.0733 12.7753 41.4635 13.3851L40.8253 14.0233C41.121 14.0803 41.4036 14.2233 41.6326 14.4523L42.5033 15.3049C43.1132 15.9148 43.1132 16.9037 42.5033 17.5136L33.4559 26.2641C32.5192 27.2007 31.0887 27.3372 30.0045 26.6797L31.2225 27.8977C32.323 28.9983 34.1074 28.9983 35.208 27.8977L45.5921 17.5136C46.202 16.9039 46.202 15.9149 45.5919 15.305Z" fill="#BBEC6C"/>
<path d="M69.9988 28.6011C70.0546 26.098 67.8077 23.6721 65.1222 23.7245H56.25C55.6836 23.7245 55.2247 24.1836 55.2247 24.7498C55.2247 25.3161 55.6836 25.7752 56.25 25.7752H65.1222C65.2045 25.7865 65.5955 25.7522 66.1868 25.9822L39.6557 51.1919V49.4711C39.6557 47.5649 38.1049 46.014 36.1987 46.014H33.8017C31.8955 46.014 30.3446 47.5649 30.3446 49.4711V51.1919L3.81339 25.9822C4.12742 25.8884 4.22859 25.7941 4.87797 25.7752H17.8855C19.9426 33.2962 26.8354 38.8405 35.0001 38.8405C44.7826 38.8405 52.7413 30.8819 52.7413 21.0995C52.7413 11.317 44.7826 3.3584 35.0001 3.3584C25.2175 3.3584 17.259 11.317 17.259 21.0995C17.259 21.9912 17.3259 22.8676 17.4536 23.7245H4.87797C2.40113 23.6464 -0.0702393 25.9462 0.00139866 28.6011V61.7651C0.00235565 64.3244 2.11321 66.6362 4.87797 66.6417H65.1222C67.6775 66.6453 70.0044 64.5163 69.9988 61.7651V28.6011ZM35.0001 5.4091C43.6517 5.4091 50.6906 12.4478 50.6906 21.0995C50.6906 29.7511 43.6519 36.7898 35.0001 36.7898C26.3483 36.7898 19.3096 29.7511 19.3096 21.0995C19.3096 12.4478 26.3484 5.4091 35.0001 5.4091ZM49.4718 44.6935L67.6763 27.3957C67.8523 27.7677 67.9481 28.176 67.9481 28.6011V61.7651C67.9481 62.1702 67.8609 62.5547 67.7067 62.9034L49.4718 44.6935ZM33.8017 48.0647H36.1987C36.9741 48.0647 37.605 48.6957 37.605 49.4711V57.3135C37.605 58.089 36.9741 58.7199 36.1987 58.7199H33.8017C33.0262 58.7199 32.3953 58.089 32.3953 57.3135V49.4711C32.3952 48.6957 33.0262 48.0647 33.8017 48.0647ZM4.87797 64.5909C4.47399 64.5909 4.09023 64.5043 3.7423 64.3509L11.3209 56.7723C11.7213 56.3719 11.7213 55.7226 11.3209 55.3223C10.9204 54.922 10.2713 54.9217 9.87076 55.3223L2.29231 62.9006C2.13892 62.5527 2.05224 62.1691 2.05224 61.7649V28.6009C2.05224 28.176 2.14808 27.7677 2.32403 27.3957L20.5136 44.6794L13.2518 51.9411C12.8514 52.3415 12.8514 52.9908 13.2518 53.3911C13.4521 53.5914 13.7145 53.6914 13.977 53.6914C14.2393 53.6914 14.5018 53.5914 14.7021 53.3911L22.0008 46.0925L29.066 52.8058C29.4607 53.1808 29.8893 53.5162 30.3446 53.8085V57.3134C30.3446 59.2196 31.8955 60.7705 33.8017 60.7705H36.1987C38.1049 60.7705 39.6557 59.2196 39.6557 57.3134V53.8085C40.111 53.5162 40.5395 53.1808 40.9344 52.8057L47.9848 46.1066L66.2553 64.352C65.9081 64.5047 65.5253 64.5908 65.1224 64.5908H4.87797V64.5909Z" fill="black"/>
<path d="M30.4972 28.6228C31.2464 29.372 32.2307 29.7466 33.2149 29.7466C34.1991 29.7466 35.1835 29.372 35.9328 28.6227L40.173 24.3825C40.5734 23.9821 40.5734 23.3328 40.173 22.9325C39.7724 22.5321 39.1233 22.5321 38.7228 22.9325L34.4827 27.1727C33.7839 27.8716 32.6463 27.8716 31.9473 27.1727L26.6369 21.8623C26.4278 21.6532 26.4278 21.3128 26.6369 21.1037L28.7095 19.031C28.9125 18.8281 29.2657 18.8284 29.4683 19.031L32.6429 22.2055C33.0435 22.6059 33.6926 22.6059 34.093 22.2055L42.1883 14.1103C42.3913 13.9074 42.7443 13.9077 42.9472 14.1103L44.8669 16.03C45.0761 16.2392 45.0761 16.5796 44.8669 16.7888L42.1107 19.545C41.7102 19.9455 41.7102 20.5947 42.1106 20.995C42.511 21.3955 43.1602 21.3955 43.5607 20.995L46.317 18.2387C47.3257 17.2301 47.3257 15.5887 46.3169 14.5799L44.3971 12.6601C43.9085 12.1715 43.2589 11.9023 42.5676 11.9023C41.8766 11.9023 41.2269 12.1714 40.7381 12.6601L33.3679 20.0305L30.9184 17.581C30.4298 17.0924 29.7801 16.8232 29.0889 16.8232C28.3978 16.8232 27.7482 17.0923 27.2594 17.581L25.1867 19.6537C24.178 20.6625 24.178 22.3038 25.1867 23.3125L30.4972 28.6228Z" fill="black"/>
</g>
<defs>
<clipPath id="clip0">
<rect width="70" height="70" fill="white"/>
</clipPath>
</defs>
</svg>
