<svg width="70" height="70" viewBox="0 0 70 70" fill="none" xmlns="http://www.w3.org/2000/svg">
<g clip-path="url(#clip0)">
<path d="M9.09091 30.0031C9.09209 28.8324 10.0414 27.8836 11.2121 27.8819H53.2499V26.9728C53.2487 25.8021 52.3 24.8533 51.1287 24.8516H8.18182C7.01113 24.8533 6.06179 25.8021 6.06061 26.9728V58.485C6.06179 59.6563 7.01054 60.605 8.18182 60.6062H9.09091V30.0031Z" fill="#D4E1F4"/>
<path d="M23.121 0C17.2083 0.00651042 12.4172 4.79818 12.4101 10.7108V23.0333H8.18192C6.00744 23.0356 4.24489 24.7982 4.24252 26.9727V58.4849C4.24489 60.6593 6.00744 62.4219 8.18192 62.4243H43.9933C44.4952 62.4243 44.9024 62.0171 44.9024 61.5152C44.9024 61.0133 44.4952 60.6061 43.9933 60.6061H8.18192C7.01063 60.6049 6.06189 59.6561 6.0607 58.4849V26.9727C6.06189 25.802 7.01123 24.8532 8.18192 24.8514H51.1288C52.3 24.8532 53.2488 25.802 53.25 26.9727V47.8788C53.25 48.3807 53.6572 48.7879 54.1591 48.7879C54.6616 48.7879 55.0682 48.3807 55.0682 47.8788V26.9727C55.0658 24.7982 53.3038 23.0356 51.1288 23.0333H46.9005V10.7108C46.8934 4.79818 42.1024 0.00651042 36.1897 0H23.121ZM41.8147 23.0333H17.496V10.7108C17.4995 7.60535 20.0161 5.08878 23.121 5.08523H36.1897C39.2952 5.08878 41.8112 7.60535 41.8147 10.7108V23.0333ZM28.1144 3.26705V1.81818H31.1968V3.26705H28.1144ZM14.2283 10.7108C14.2342 5.80197 18.2121 1.82351 23.121 1.81818H26.2963V3.26705H23.121C19.0123 3.27178 15.6825 6.60156 15.6778 10.7108V23.0333H14.2283V10.7108ZM45.0824 10.7108V23.0333H43.6329V10.7108C43.6282 6.60156 40.2984 3.27178 36.1897 3.26705H33.015V1.81818H36.1897C41.0986 1.82351 45.0764 5.80197 45.0824 10.7108Z" fill="#157FCC"/>
<path d="M23.5311 42.8804C23.5311 43.8575 24.323 44.6494 25.3002 44.6494C26.2767 44.6494 27.0692 43.8569 27.0686 42.8804C27.0686 41.9032 26.2767 41.1113 25.2996 41.1113C24.3236 41.1125 23.5323 41.9038 23.5311 42.8804ZM25.3493 42.8804C25.3493 42.9005 25.3374 42.9183 25.3185 42.926C25.3002 42.9337 25.2788 42.9295 25.2646 42.9153C25.251 42.9011 25.2463 42.8798 25.254 42.8614C25.2617 42.8431 25.28 42.8313 25.2996 42.8313C25.3268 42.8313 25.3493 42.8532 25.3493 42.8804Z" fill="#157FCC"/>
<path d="M32.2421 42.8804C32.2421 43.8569 33.034 44.6494 34.0112 44.6494C34.9883 44.6494 35.7802 43.8569 35.7802 42.8804C35.7802 41.9032 34.9883 41.1113 34.0112 41.1113C33.0346 41.1125 32.2433 41.9038 32.2421 42.8804ZM34.0603 42.8804C34.0603 42.9005 34.0485 42.9183 34.0301 42.926C34.0112 42.9337 33.9899 42.9295 33.9763 42.9153C33.9621 42.9011 33.9579 42.8798 33.9656 42.8614C33.9733 42.8431 33.9911 42.8313 34.0112 42.8313C34.0384 42.8313 34.0603 42.8532 34.0603 42.8804Z" fill="#157FCC"/>
<path d="M40.9532 42.8804C40.9532 43.8569 41.7456 44.6494 42.7222 44.6494C43.6994 44.6494 44.4913 43.8569 44.4913 42.8804C44.4913 41.9032 43.6994 41.1113 42.7222 41.1113C41.7456 41.1125 40.9543 41.9038 40.9532 42.8804ZM42.7713 42.8804C42.7713 42.9076 42.7494 42.9295 42.7222 42.9295C42.695 42.9295 42.6731 42.9076 42.6731 42.8804C42.6731 42.8532 42.695 42.8313 42.7222 42.8313C42.7494 42.8313 42.7713 42.8532 42.7713 42.8804Z" fill="#157FCC"/>
<path d="M14.8193 42.8804C14.8193 43.8569 15.6112 44.6494 16.5884 44.6494C17.5656 44.6494 18.3575 43.8569 18.3575 42.8804C18.3575 41.9032 17.5656 41.1113 16.5884 41.1113C15.6118 41.1125 14.8205 41.9038 14.8193 42.8804ZM16.6375 42.8804C16.6375 42.9076 16.6156 42.9295 16.5884 42.9295C16.5612 42.9295 16.5393 42.9076 16.5393 42.8804C16.5393 42.8532 16.5612 42.8313 16.5884 42.8313C16.6156 42.8313 16.6375 42.8532 16.6375 42.8804Z" fill="#157FCC"/>
<path d="M54.1592 46.9697C47.7997 46.9697 42.644 52.1254 42.644 58.4849C42.644 64.8444 47.7997 70 54.1592 70C60.5187 70 65.6743 64.8444 65.6743 58.4849C65.6672 52.1283 60.5157 46.9768 54.1592 46.9697ZM54.1592 68.1818C48.8041 68.1818 44.4622 63.8406 44.4622 58.4849C44.4622 53.1292 48.8041 48.7879 54.1592 48.7879C59.5149 48.7879 63.8561 53.1292 63.8561 58.4849C63.8502 63.8376 59.5125 68.1759 54.1592 68.1818Z" fill="#6FCF97"/>
<path d="M54.4368 51.2342C53.3448 51.1537 52.2694 51.5343 51.4716 52.2842C50.6749 53.0299 50.2216 54.0728 50.2198 55.1642C50.2198 55.6667 50.627 56.0733 51.1289 56.0733C51.6314 56.0733 52.038 55.6667 52.038 55.1642C52.038 54.5753 52.283 54.0124 52.7145 53.6111C53.1453 53.2099 53.7242 53.0063 54.3119 53.0483C55.2411 53.1152 56.0182 53.7804 56.2277 54.6883C56.4366 55.5962 56.0283 56.5343 55.2216 57.0007C53.9923 57.7293 53.2418 59.0556 53.2501 60.4844V61.8001C53.2501 62.302 53.6573 62.7092 54.1592 62.7092C54.6617 62.7092 55.0683 62.302 55.0683 61.8001V60.4844C55.0594 59.7031 55.4648 58.9763 56.1342 58.5733C57.6322 57.7062 58.3886 55.9632 57.9986 54.2764C57.6085 52.5902 56.1638 51.3562 54.4374 51.2342H54.4368Z" fill="#6FCF97"/>
<path d="M54.1589 62.916C53.3782 62.916 52.7449 63.5493 52.7449 64.3305C52.7449 65.1112 53.3782 65.7445 54.1595 65.7445C54.9401 65.7445 55.5734 65.1112 55.5734 64.33C55.5722 63.5493 54.9395 62.9172 54.1589 62.916ZM54.1589 64.7342C53.9357 64.7342 53.7546 64.5537 53.7546 64.33C53.7546 64.1068 53.9357 63.9263 54.1589 63.9263C54.382 63.9263 54.5631 64.1068 54.5631 64.33C54.5631 64.5531 54.382 64.7342 54.1589 64.7342Z" fill="#6FCF97"/>
</g>
<defs>
<clipPath id="clip0">
<rect width="70" height="70" fill="white"/>
</clipPath>
</defs>
</svg>
