<svg width="130" height="130" viewBox="0 0 130 130" fill="none" xmlns="http://www.w3.org/2000/svg">
<g clip-path="url(#clip0)">
<path d="M116.713 21.0503L66.9472 0.388191C65.7005 -0.12927 64.2992 -0.129524 63.0528 0.388191L13.2872 21.0503C11.3918 21.8374 10.1562 23.6879 10.1562 25.7402V50.8579C10.1562 85.4432 31.0601 116.554 63.081 129.623C64.3109 130.125 65.6889 130.125 66.919 129.623C98.9394 116.554 119.844 85.4435 119.844 50.8579V25.7402C119.844 23.6879 118.608 21.8374 116.713 21.0503ZM109.688 50.8579C109.688 80.259 92.4219 107.325 65 119.406C38.3109 107.647 20.3125 81.0557 20.3125 50.8579V29.1304L65 10.5764L109.688 29.1304V50.8579ZM59.3871 67.9747L81.2139 46.1482C83.197 44.1652 86.4122 44.1649 88.3954 46.1482C90.3787 48.1315 90.3784 51.3467 88.3952 53.3297L62.9779 78.747C60.9944 80.7305 57.7792 80.7297 55.7964 78.747L41.6046 64.5551C39.6213 62.5719 39.6213 59.3567 41.6046 57.3736C43.5878 55.3906 46.803 55.3904 48.7861 57.3736L59.3871 67.9747Z" fill="url(#paint0_linear)"/>
</g>
<defs>
<linearGradient id="paint0_linear" x1="10.1563" y1="65" x2="119.844" y2="65" gradientUnits="userSpaceOnUse">
<stop stop-color="#157FCC"/>
<stop offset="1" stop-color="#157FCC" stop-opacity="0.4"/>
</linearGradient>
<clipPath id="clip0">
<rect width="130" height="130" fill="white"/>
</clipPath>
</defs>
</svg>
